<?xml version="1.0" encoding="utf-8"?>
<!-- Sporting Yoga gem mark; cropped viewBox; source: brand logo SVG -->
<svg
  version="1.1"
  xmlns="http://www.w3.org/2000/svg"
  xmlns:xlink="http://www.w3.org/1999/xlink"
  viewBox="158 218 278 318"
  xml:space="preserve"
>
  <style type="text/css">
    .st0 {
      fill: #107cfd;
    }
    .st1 {
      fill-rule: evenodd;
      clip-rule: evenodd;
      fill: url(#SVGID_1_);
    }
    .st2 {
      fill-rule: evenodd;
      clip-rule: evenodd;
      fill: url(#SVGID_2_);
    }
    .st3 {
      fill-rule: evenodd;
      clip-rule: evenodd;
      fill: url(#SVGID_3_);
    }
    .st4 {
      fill-rule: evenodd;
      clip-rule: evenodd;
      fill: url(#SVGID_4_);
    }
    .st5 {
      fill-rule: evenodd;
      clip-rule: evenodd;
      fill: url(#SVGID_5_);
    }
    .st6 {
      fill-rule: evenodd;
      clip-rule: evenodd;
      fill: url(#SVGID_6_);
    }
    .st7 {
      fill-rule: evenodd;
      clip-rule: evenodd;
      fill: url(#SVGID_7_);
    }
    .st8 {
      fill-rule: evenodd;
      clip-rule: evenodd;
      fill: url(#SVGID_8_);
    }
    .st9 {
      fill-rule: evenodd;
      clip-rule: evenodd;
      fill: url(#SVGID_9_);
    }
    .st10 {
      fill-rule: evenodd;
      clip-rule: evenodd;
      fill: url(#SVGID_10_);
    }
    .st11 {
      fill-rule: evenodd;
      clip-rule: evenodd;
      fill: url(#SVGID_11_);
    }
    .st12 {
      fill-rule: evenodd;
      clip-rule: evenodd;
      fill: url(#SVGID_12_);
    }
    .st13 {
      fill-rule: evenodd;
      clip-rule: evenodd;
      fill: url(#SVGID_13_);
    }
    .st14 {
      fill-rule: evenodd;
      clip-rule: evenodd;
      fill: url(#SVGID_14_);
    }
    .st15 {
      fill-rule: evenodd;
      clip-rule: evenodd;
      fill: url(#SVGID_15_);
    }
    .st16 {
      fill-rule: evenodd;
      clip-rule: evenodd;
      fill: url(#SVGID_16_);
    }
    .st17 {
      fill-rule: evenodd;
      clip-rule: evenodd;
      fill: url(#SVGID_17_);
    }
    .st18 {
      fill-rule: evenodd;
      clip-rule: evenodd;
      fill: url(#SVGID_18_);
    }
    .st19 {
      fill-rule: evenodd;
      clip-rule: evenodd;
      fill: url(#SVGID_19_);
    }
    .st20 {
      fill-rule: evenodd;
      clip-rule: evenodd;
      fill: url(#SVGID_20_);
    }
    .st21 {
      fill-rule: evenodd;
      clip-rule: evenodd;
      fill: url(#SVGID_21_);
    }
  </style>
  <polygon
    class="st0"
    points="163.5,298.98 298.05,221.36 432.53,298.98 432.53,454.31 298.05,531.93 163.5,454.31 "
  />
  <linearGradient
    id="SVGID_1_"
    gradientUnits="userSpaceOnUse"
    x1="13365.5527"
    y1="-8312.4893"
    x2="13365.5527"
    y2="-17943.3086"
    gradientTransform="matrix(0.0283 0 0 -0.0283 0.9717 23.9779)"
  >
    <stop offset="0" style="stop-color: #f7fbfe" />
    <stop offset="1" style="stop-color: #6d6964" />
  </linearGradient>
  <polygon class="st1" points="389.33,445.61 370.58,434.73 370.35,354.78 389.1,365.66 " />
  <linearGradient
    id="SVGID_2_"
    gradientUnits="userSpaceOnUse"
    x1="12913.1553"
    y1="-12103.2939"
    x2="11272.7549"
    y2="-14802.0439"
    gradientTransform="matrix(0.0283 0 0 -0.0283 0.9717 23.9779)"
  >
    <stop offset="0" style="stop-color: #f7fbfe" />
    <stop offset="1" style="stop-color: #6d6964" />
  </linearGradient>
  <polygon class="st2" points="332.78,454.23 314.03,443.36 370.28,330.86 389.03,341.73 " />
  <linearGradient
    id="SVGID_3_"
    gradientUnits="userSpaceOnUse"
    x1="13469.1416"
    y1="-10953.2373"
    x2="9976.6514"
    y2="-12964.0762"
    gradientTransform="matrix(0.0283 0 0 -0.0283 0.9717 23.9779)"
  >
    <stop offset="0" style="stop-color: #f7fbfe" />
    <stop offset="1" style="stop-color: #6d6964" />
  </linearGradient>
  <polygon class="st3" points="389.03,341.73 370.28,330.86 387.23,321.03 405.98,331.91 " />
  <linearGradient
    id="SVGID_4_"
    gradientUnits="userSpaceOnUse"
    x1="13467.5488"
    y1="-10977.1787"
    x2="9975.0586"
    y2="-12961.5586"
    gradientTransform="matrix(0.0283 0 0 -0.0283 0.9717 23.9779)"
  >
    <stop offset="0" style="stop-color: #f7fbfe" />
    <stop offset="1" style="stop-color: #6d6964" />
  </linearGradient>
  <polygon class="st4" points="315.6,384.11 296.85,373.23 313.8,363.48 332.55,374.28 " />
  <linearGradient
    id="SVGID_5_"
    gradientUnits="userSpaceOnUse"
    x1="10772.6377"
    y1="-8312.4893"
    x2="10772.6377"
    y2="-17943.3086"
    gradientTransform="matrix(0.0283 0 0 -0.0283 0.9717 23.9779)"
  >
    <stop offset="0" style="stop-color: #f7fbfe" />
    <stop offset="1" style="stop-color: #6d6964" />
  </linearGradient>
  <polygon class="st5" points="315.83,487.98 297.15,477.11 296.85,373.23 315.6,384.11 " />
  <linearGradient
    id="SVGID_6_"
    gradientUnits="userSpaceOnUse"
    x1="11444.9326"
    y1="-12759.0518"
    x2="13455.7627"
    y2="-14134.8818"
    gradientTransform="matrix(0.0283 0 0 -0.0283 0.9717 23.9779)"
  >
    <stop offset="0" style="stop-color: #ffffff" />
    <stop offset="1" style="stop-color: #f2f3f2" />
  </linearGradient>
  <polygon
    class="st6"
    points="405.98,331.91 406.28,435.78 389.33,445.61 389.1,365.66 332.78,478.16 315.83,487.98 315.6,384.11 332.55,374.28 332.78,454.23 389.03,341.73 "
  />
  <linearGradient
    id="SVGID_7_"
    gradientUnits="userSpaceOnUse"
    x1="7437.5674"
    y1="-14450.8184"
    x2="7437.5674"
    y2="-11540.4082"
    gradientTransform="matrix(0.0283 0 0 -0.0283 0.9717 23.9779)"
  >
    <stop offset="0" style="stop-color: #f7fbfe" />
    <stop offset="1" style="stop-color: #6d6964" />
  </linearGradient>
  <polygon class="st7" points="202.58,361.16 221.25,350.28 221.1,415.23 202.35,426.11 " />
  <linearGradient
    id="SVGID_8_"
    gradientUnits="userSpaceOnUse"
    x1="10025.1924"
    y1="-12519.3584"
    x2="10025.1924"
    y2="-16488.0996"
    gradientTransform="matrix(0.0283 0 0 -0.0283 0.9717 23.9779)"
  >
    <stop offset="0" style="stop-color: #f7fbfe" />
    <stop offset="1" style="stop-color: #6d6964" />
  </linearGradient>
  <polygon class="st8" points="275.78,468.48 294.53,457.61 294.45,477.11 275.78,487.98 " />
  <linearGradient
    id="SVGID_9_"
    gradientUnits="userSpaceOnUse"
    x1="7878.915"
    y1="-15252.5391"
    x2="15684.1152"
    y2="-10569.4189"
    gradientTransform="matrix(0.0283 0 0 -0.0283 0.9717 23.9779)"
  >
    <stop offset="0" style="stop-color: #f7fbfe" />
    <stop offset="1" style="stop-color: #6d6964" />
  </linearGradient>
  <polygon class="st9" points="202.35,426.11 221.1,415.23 294.53,457.61 275.78,468.48 " />
  <linearGradient
    id="SVGID_10_"
    gradientUnits="userSpaceOnUse"
    x1="10033.127"
    y1="-12519.3584"
    x2="10033.127"
    y2="-16488.0996"
    gradientTransform="matrix(0.0283 0 0 -0.0283 0.9717 23.9779)"
  >
    <stop offset="0" style="stop-color: #f7fbfe" />
    <stop offset="1" style="stop-color: #6d6964" />
  </linearGradient>
  <polygon class="st10" points="276.08,384.11 294.75,373.23 294.68,392.73 276,403.61 " />
  <linearGradient
    id="SVGID_11_"
    gradientUnits="userSpaceOnUse"
    x1="6405.2397"
    y1="-12805.3652"
    x2="14210.4395"
    y2="-8148.6958"
    gradientTransform="matrix(0.0283 0 0 -0.0283 0.9717 23.9779)"
  >
    <stop offset="0" style="stop-color: #f7fbfe" />
    <stop offset="1" style="stop-color: #6d6964" />
  </linearGradient>
  <polygon class="st11" points="221.33,330.86 204.38,321.03 185.63,331.91 202.58,341.73 276.08,384.11 294.75,373.23 " />
  <linearGradient
    id="SVGID_12_"
    gradientUnits="userSpaceOnUse"
    x1="6583.5659"
    y1="-11404.0566"
    x2="8620.8555"
    y2="-14367.3965"
    gradientTransform="matrix(0.0283 0 0 -0.0283 0.9717 23.9779)"
  >
    <stop offset="0" style="stop-color: #ffffff" />
    <stop offset="1" style="stop-color: #f2f3f2" />
  </linearGradient>
  <polygon
    class="st12"
    points="276.08,384.11 276,403.61 202.58,361.16 202.35,426.11 275.78,468.48 275.78,487.98 202.28,445.61 185.33,435.78 185.4,416.28 185.63,351.41 185.63,331.91 202.58,341.73 "
  />
  <linearGradient
    id="SVGID_13_"
    gradientUnits="userSpaceOnUse"
    x1="10296.3877"
    y1="-8312.4893"
    x2="10296.3877"
    y2="-11937.2783"
    gradientTransform="matrix(0.0283 0 0 -0.0283 0.9717 23.9779)"
  >
    <stop offset="0" style="stop-color: #f7fbfe" />
    <stop offset="1" style="stop-color: #6d6964" />
  </linearGradient>
  <polygon class="st13" points="312.53,255.71 312.45,277.38 273.15,300.18 273.23,278.58 " />
  <linearGradient
    id="SVGID_14_"
    gradientUnits="userSpaceOnUse"
    x1="11180.2656"
    y1="-9346.3184"
    x2="12794.2158"
    y2="-10298.8184"
    gradientTransform="matrix(0.0283 0 0 -0.0283 0.9717 23.9779)"
  >
    <stop offset="0" style="stop-color: #f7fbfe" />
    <stop offset="1" style="stop-color: #6d6964" />
  </linearGradient>
  <polygon class="st14" points="352.13,298.16 352.13,319.76 329.48,306.71 329.55,285.11 " />
  <linearGradient
    id="SVGID_15_"
    gradientUnits="userSpaceOnUse"
    x1="10620.1357"
    y1="-10624.3584"
    x2="9032.6357"
    y2="-9724.7783"
    gradientTransform="matrix(0.0283 0 0 -0.0283 0.9717 23.9779)"
  >
    <stop offset="0" style="stop-color: #f7fbfe" />
    <stop offset="1" style="stop-color: #6d6964" />
  </linearGradient>
  <polygon class="st15" points="273.3,298.16 273.23,319.76 256.28,310.01 256.35,288.33 " />
  <linearGradient
    id="SVGID_16_"
    gradientUnits="userSpaceOnUse"
    x1="7615.123"
    y1="-10415.0059"
    x2="10128.6631"
    y2="-9277.2959"
    gradientTransform="matrix(0.0283 0 0 -0.0283 0.9717 23.9779)"
  >
    <stop offset="0" style="stop-color: #f7fbfe" />
    <stop offset="1" style="stop-color: #6d6964" />
  </linearGradient>
  <polygon class="st16" points="256.35,288.33 256.28,310.01 222.6,329.58 222.68,307.91 " />
  <linearGradient
    id="SVGID_17_"
    gradientUnits="userSpaceOnUse"
    x1="7520.9072"
    y1="-8312.4893"
    x2="7520.9072"
    y2="-17943.3086"
    gradientTransform="matrix(0.0283 0 0 -0.0283 0.9717 23.9779)"
  >
    <stop offset="0" style="stop-color: #f7fbfe" />
    <stop offset="1" style="stop-color: #6d6964" />
  </linearGradient>
  <polygon class="st17" points="222.68,307.91 222.6,329.58 205.65,319.76 205.73,298.16 " />
  <linearGradient
    id="SVGID_18_"
    gradientUnits="userSpaceOnUse"
    x1="10600.6572"
    y1="-8312.4893"
    x2="10600.6572"
    y2="-17943.3086"
    gradientTransform="matrix(0.0283 0 0 -0.0283 0.9717 23.9779)"
  >
    <stop offset="0" style="stop-color: #f7fbfe" />
    <stop offset="1" style="stop-color: #6d6964" />
  </linearGradient>
  <polygon
    class="st18"
    points="307.13,298.16 290.25,307.91 273.45,317.66 273.38,339.33 290.18,329.58 307.05,319.76 329.48,306.71 329.55,285.11 "
  />
  <linearGradient
    id="SVGID_19_"
    gradientUnits="userSpaceOnUse"
    x1="11996.3369"
    y1="-8312.4893"
    x2="11996.3369"
    y2="-17943.3086"
    gradientTransform="matrix(0.0283 0 0 -0.0283 0.9717 23.9779)"
  >
    <stop offset="0" style="stop-color: #f7fbfe" />
    <stop offset="1" style="stop-color: #6d6964" />
  </linearGradient>
  <polygon class="st19" points="369.08,307.91 296.1,350.28 296.1,371.96 369.08,329.58 385.88,319.76 385.95,298.16 " />
  <linearGradient
    id="SVGID_20_"
    gradientUnits="userSpaceOnUse"
    x1="8667.8828"
    y1="-9672.4385"
    x2="12477.873"
    y2="-9672.4385"
    gradientTransform="matrix(0.0283 0 0 -0.0283 0.9717 23.9779)"
  >
    <stop offset="0" style="stop-color: #ffffff" />
    <stop offset="1" style="stop-color: #f2f3f2" />
  </linearGradient>
  <path
    class="st20"
    d="M296.03,330.71l56.1-32.62l-22.58-13.05l-22.42,13.05l-16.88,9.75l-16.87,9.75L296.03,330.71z M369,288.33
	l16.95,9.75l-16.87,9.75l-72.98,42.38l-5.63-3.3l-11.32-6.52l-22.58-12.9l-16.95-9.75l33.68-19.57l-16.95-9.75l-33.68,19.58
	l-16.95-9.75l33.68-19.57l16.87-9.75l39.3-22.8l16.95,9.75l-39.3,22.8l16.95,9.75l22.42-13.05l16.88-9.75l16.95,9.75L369,288.33
	L369,288.33z"
  />
  <linearGradient
    id="SVGID_21_"
    gradientUnits="userSpaceOnUse"
    x1="12013.9785"
    y1="-9842.3662"
    x2="7727.7383"
    y2="-12276.5352"
    gradientTransform="matrix(0.0283 0 0 -0.0283 0.9717 23.9779)"
  >
    <stop offset="0" style="stop-color: #f7fbfe" />
    <stop offset="1" style="stop-color: #6d6964" />
  </linearGradient>
  <polygon
    class="st21"
    points="290.48,347.06 279.15,340.53 256.58,327.48 239.63,317.66 239.55,339.33 256.5,349.08 279.15,362.13 290.4,368.66 296.1,371.96 296.1,350.28 "
  />
</svg>
